<?xml version="1.0" encoding="UTF-8"?>
<svg xmlns="http://www.w3.org/2000/svg" width="184" height="49" viewBox="0 0 184 49" fill="none">
  <path d="M177.208 5.02792H146.763C146.201 2.16242 143.676 0 140.646 0C137.616 0 135.091 2.16242 134.529 5.02792H6.79174C3.04077 5.02792 0 8.068 0 11.8191V41.6025C0 45.3536 3.04077 48.3945 6.79174 48.3945H177.209C180.96 48.3945 184 45.3536 184 41.6025V11.8191C184 8.068 180.959 5.02713 177.209 5.02713L177.208 5.02792Z" fill="#1C74BA"></path>
  <path d="M176.952 7.79188H145.663C145.801 7.334 145.875 6.84914 145.875 6.34604C145.875 3.56941 143.624 1.31812 140.848 1.31812C138.071 1.31812 135.82 3.56941 135.82 6.34604C135.82 6.84835 135.894 7.334 136.032 7.79188H6.84815C4.3192 7.79188 2.26953 9.84161 2.26953 12.3707V41.2217C2.26953 43.7507 4.3192 45.8004 6.84815 45.8004H176.952C179.481 45.8004 181.531 43.7507 181.531 41.2217V12.3707C181.531 9.84161 179.481 7.79188 176.952 7.79188Z" fill="white"></path>
  <path d="M64.2383 38.858H70.0461L81.9052 21.515L93.2375 38.858H99.2548L83.0058 14.7412H80.98L64.2383 38.858Z" fill="#1C74BA"></path>
  <path d="M131.732 38.858L120.859 26.2683L131.124 14.7412H124.965L117.8 22.7267L110.904 14.7412H104.745L114.632 26.2572L103.327 38.858H109.648L117.694 29.8234L125.451 38.858H131.732Z" fill="#333333"></path>
  <path d="M143.402 14.7412H137.891V38.8722H143.402V14.7412Z" fill="#1C74BA"></path>
  <path d="M151.586 32.2259L157.056 31.4157C157.056 31.4157 157.381 34.5359 160.096 35.3866C162.81 36.2373 169.212 36.2373 169.212 31.7799C169.212 31.7799 169.334 29.6326 166.214 28.5787C163.094 27.5249 158.231 26.4314 155.678 24.7292C153.125 23.0271 153.206 21.4066 153.328 20.029C153.449 18.6514 154.624 16.1795 159.527 14.9638C164.431 13.7481 169.819 13.91 173.669 18.4078L169.212 20.2314C169.212 20.2314 167.064 16.8683 162.121 18.0023C157.177 19.1371 158.717 22.0946 160.297 22.7025C161.877 23.3104 167.024 24.6475 169.536 25.6204C172.048 26.5933 174.885 28.4565 174.561 32.6306C174.236 36.8046 169.05 38.871 164.958 39.2758C160.865 39.6813 153.409 38.9925 151.586 32.2251V32.2259Z" fill="#333333"></path>
  <path d="M15.9377 14.7886H9.34668V38.8585H14.7767V29.1605C14.7767 29.1605 29.472 30.5381 29.472 21.6504C29.472 21.6504 29.8235 14.3569 15.9385 14.7886H15.9377ZM14.8299 25.7562V18.1651C14.8299 18.1651 24.1768 17.247 24.1768 21.9607C24.1768 26.6743 14.8299 25.7562 14.8299 25.7562Z" fill="#333333"></path>
  <path d="M48.7461 28.64C48.7461 28.64 56.5869 27.4853 56.5869 21.9535C56.5869 16.4217 50.2046 15.1663 47.1456 14.9838C44.0865 14.8013 36.4688 14.7695 36.4688 14.7695V38.8577H41.9393V29.0042H42.851L53.1232 38.8577H59.7483L48.7469 28.6392L48.7461 28.64ZM42.0059 25.8371V18.273C42.0059 18.273 51.3528 17.2462 51.3528 21.9202C51.3528 26.5942 42.0059 25.8371 42.0059 25.8371Z" fill="#333333"></path>
  <path d="M81.945 36.4096C84.1156 36.4096 85.8753 34.6498 85.8753 32.4791C85.8753 30.3084 84.1156 28.5487 81.945 28.5487C79.7743 28.5487 78.0146 30.3084 78.0146 32.4791C78.0146 34.6498 79.7743 36.4096 81.945 36.4096Z" fill="#C40E0F"></path>
  <path d="M141.05 10.071C143.008 10.071 144.596 8.48357 144.596 6.5254C144.596 4.56724 143.008 2.97983 141.05 2.97983C139.092 2.97983 137.505 4.56724 137.505 6.5254C137.505 8.48357 139.092 10.071 141.05 10.071Z" fill="#C40E0F"></path>
</svg>
